<svg version="1.1" id="Layer_1" xmlns="http://www.w3.org/2000/svg" xmlns:xlink="http://www.w3.org/1999/xlink" x="0px" y="0px"
	 width="100%" viewBox="0 0 2000 1017" enable-background="new 0 0 2000 1017" xml:space="preserve">
<path fill="#45818E" opacity="1.000000" stroke="none" 
	d="
M1190.000000,1018.000000 
	C793.333374,1018.000000 397.166809,1018.000000 1.000160,1018.000000 
	C1.000106,679.000122 1.000106,340.000275 1.000053,1.000296 
	C667.666443,1.000197 1334.332886,1.000197 2000.999512,1.000099 
	C2000.999634,339.999695 2000.999634,678.999390 2000.999756,1017.999512 
	C1730.833374,1018.000000 1460.666626,1018.000000 1190.000000,1018.000000 
M1082.990479,558.401917 
	C1115.818359,549.772888 1149.117554,547.068115 1182.962769,549.778992 
	C1213.775146,552.247009 1243.437988,559.325928 1271.824585,571.375732 
	C1283.746948,576.436646 1295.339722,582.417358 1306.633179,588.777527 
	C1318.133667,595.254333 1328.640503,586.748657 1328.343506,576.572754 
	C1327.634033,552.262390 1328.044189,527.917114 1328.156250,503.586670 
	C1328.181274,498.145081 1325.960815,494.340912 1321.352173,491.745728 
	C1316.417969,488.967194 1311.574219,486.005157 1306.515381,483.473938 
	C1256.953491,458.675262 1204.745850,445.929138 1149.030273,447.795135 
	C1111.862793,449.039978 1076.050903,456.062561 1041.416626,469.433228 
	C1040.164551,469.916626 1038.860840,470.266541 1037.581177,470.678650 
	C1037.959229,468.877319 1038.732300,467.841309 1039.594849,466.886047 
	C1069.890869,433.327698 1108.275269,413.211578 1150.802002,399.973450 
	C1176.308594,392.033508 1202.349976,386.568176 1228.953003,384.338776 
	C1243.665039,383.105896 1258.489258,383.238861 1273.258789,382.652374 
	C1278.319336,382.451385 1282.706665,380.691528 1285.429810,376.062775 
	C1291.173706,366.299377 1284.915649,355.574951 1272.966431,355.255951 
	C1265.328857,355.052063 1257.632202,355.277893 1250.026611,355.995514 
	C1229.680176,357.915192 1209.168701,359.067505 1189.087402,362.597717 
	C1154.189209,368.732666 1120.569458,379.334564 1089.005371,395.923340 
	C1059.312378,411.528778 1033.121948,431.409363 1011.908813,457.558838 
	C1008.598328,461.639709 1005.455811,465.856842 1001.882629,470.466400 
	C1000.116638,468.207825 998.787109,466.342896 997.291565,464.622284 
	C989.323669,455.455292 981.946899,445.663177 973.205627,437.299805 
	C941.658630,407.116425 903.937988,387.365265 862.612793,374.285797 
	C825.922180,362.673187 788.209900,356.650360 749.761963,355.287994 
	C742.937683,355.046173 736.085510,354.945984 729.270142,355.275818 
	C721.769836,355.638763 715.849731,362.201904 716.209717,369.099487 
	C716.593445,376.452606 722.808960,382.407379 729.767944,382.666138 
	C745.693176,383.258209 761.652771,383.591431 777.519714,384.949249 
	C810.355957,387.759308 842.215088,395.171387 873.066956,406.839966 
	C907.698059,419.937897 938.501648,438.851044 963.709595,466.300262 
	C964.811462,467.500092 965.811951,468.793060 967.150818,470.389893 
	C966.003540,470.542542 965.825623,470.622131 965.691772,470.575439 
	C964.123535,470.027771 962.546021,469.501862 961.000977,468.893707 
	C923.833008,454.263611 885.085449,447.648804 845.335022,447.426758 
	C829.933105,447.340698 814.439270,449.087006 799.123108,451.055206 
	C757.431396,456.412933 718.809753,470.892914 682.513733,491.836761 
	C678.368225,494.228851 675.885437,497.656616 675.900818,502.771912 
	C675.976746,527.935913 675.828674,553.101379 676.086548,578.263000 
	C676.115784,581.116882 677.580994,584.467590 679.448059,586.691650 
	C684.333984,592.511841 690.360413,592.713379 698.837646,587.889771 
	C734.019409,567.871094 771.579712,555.249573 811.892578,550.724731 
	C841.398315,547.412903 870.689148,548.325989 899.856262,553.710693 
	C932.928162,559.816406 963.925049,571.557434 993.066467,588.271118 
	C999.053650,591.704895 1004.632080,591.844971 1010.897522,588.227600 
	C1033.350342,575.263977 1057.166870,565.442200 1082.990479,558.401917 
M1231.823975,758.687134 
	C1228.889160,757.338867 1225.954346,755.990540 1222.510132,754.408325 
	C1224.147949,753.487915 1225.277100,752.844971 1226.413940,752.215820 
	C1236.151123,746.827393 1242.261230,738.541016 1244.947388,727.909546 
	C1250.116577,707.449829 1237.610840,682.939026 1217.278564,673.287781 
	C1205.508911,667.700928 1193.014282,667.113953 1180.191040,667.377441 
	C1153.225708,667.931458 1126.247192,667.961853 1099.274170,667.952698 
	C1090.546753,667.949707 1088.795898,668.947632 1087.079346,677.731384 
	C1086.602295,680.172607 1086.176514,682.651428 1086.054565,685.129089 
	C1085.778076,690.751160 1087.644531,692.975037 1093.241211,693.876709 
	C1094.876343,694.140076 1096.562500,694.109314 1098.226807,694.165283 
	C1106.473755,694.442993 1108.033447,696.002502 1108.050781,704.357910 
	C1108.085693,721.190613 1108.062622,738.023376 1108.062744,754.856140 
	C1108.062988,777.521973 1108.077271,800.187866 1108.054321,822.853699 
	C1108.046021,831.077881 1106.732178,832.423828 1098.732544,833.093018 
	C1096.250854,833.300537 1093.773071,833.707458 1091.331421,834.208008 
	C1087.545532,834.984192 1085.398438,837.164490 1086.038330,841.271362 
	C1086.651367,845.206177 1087.036377,849.222473 1088.137573,853.024597 
	C1089.835693,858.887268 1091.839355,859.936584 1097.985474,859.393433 
	C1100.307739,859.188232 1102.643188,858.990723 1104.970825,859.010010 
	C1131.455811,859.229187 1157.942871,859.351379 1184.424438,859.793030 
	C1200.839111,860.066772 1216.751831,858.230957 1231.156860,849.739624 
	C1248.416992,839.565247 1258.609863,824.703308 1259.118042,804.276672 
	C1259.626831,783.818115 1249.969971,769.033936 1231.823975,758.687134 
M1049.228149,911.768250 
	C1061.298706,905.329041 1067.143921,894.762207 1068.807495,881.639587 
	C1071.329102,861.748596 1063.165771,849.790833 1043.725220,844.808838 
	C1038.744141,843.532349 1033.651611,842.233154 1028.554565,841.952148 
	C1012.599365,841.072876 996.614502,840.750793 980.647278,840.067871 
	C965.965088,839.439941 963.004578,834.812500 967.952820,821.037781 
	C969.177551,817.628235 970.581177,816.451050 974.472900,817.571899 
	C991.389404,822.444336 1008.422974,822.036499 1025.207275,817.005981 
	C1052.961060,808.687744 1066.231934,781.501831 1055.161987,754.846497 
	C1052.202393,747.720154 1046.866699,741.580566 1042.979248,735.543030 
	C1046.776245,735.543030 1051.727417,735.617798 1056.675659,735.528992 
	C1071.517090,735.262756 1074.226440,732.222778 1073.060303,717.533447 
	C1072.737427,713.467712 1070.969604,711.346008 1066.685303,710.697510 
	C1052.292725,708.518982 1040.941772,713.819702 1031.557739,724.309143 
	C1029.951782,726.104248 1028.886963,727.530396 1025.860596,726.083496 
	C1003.975525,715.620178 982.256226,716.846558 961.308167,728.530457 
	C940.596680,740.082458 930.541138,764.695984 937.260620,785.616882 
	C940.246155,794.912048 945.817993,802.398132 952.642456,807.649780 
	C947.496826,814.805115 941.544922,821.112061 937.922913,828.553223 
	C931.587524,841.568848 936.225586,852.637390 949.169250,859.129883 
	C949.394287,859.242859 949.478699,859.636108 949.071899,858.924377 
	C946.172974,869.452332 943.022278,879.100525 940.909668,888.970886 
	C937.395447,905.389893 941.269775,911.313232 957.390137,916.004089 
	C957.549683,916.050476 957.718750,916.064026 957.878235,916.110657 
	C975.900574,921.369263 994.319031,921.669617 1012.848694,920.453796 
	C1025.207764,919.642944 1037.282471,917.558960 1049.228149,911.768250 
M1621.873535,744.500000 
	C1621.889648,722.172913 1621.986694,699.845459 1621.881592,677.518921 
	C1621.840332,668.765015 1620.077881,667.573669 1611.359375,668.050232 
	C1602.728516,668.522095 1594.040649,669.076782 1585.433960,668.593628 
	C1573.848877,667.943176 1572.553589,668.662231 1571.934326,680.500671 
	C1571.804077,682.992004 1571.385864,685.626587 1572.017822,687.945129 
	C1572.455688,689.551636 1574.261475,691.093384 1575.839478,691.987061 
	C1577.184814,692.749146 1579.076904,692.547791 1580.727539,692.768738 
	C1590.317383,694.052246 1592.968506,697.055786 1592.982910,706.846924 
	C1593.009399,724.842102 1592.991211,742.837341 1592.990845,760.832520 
	C1592.990356,782.326782 1593.019653,803.821106 1592.969849,825.315247 
	C1592.954346,832.034668 1591.578247,834.128479 1585.855347,834.622620 
	C1570.790649,835.923218 1572.857300,839.204468 1574.059082,850.972046 
	C1574.142944,851.792908 1574.392578,852.596313 1574.556152,853.409607 
	C1575.392456,857.564636 1577.398804,859.210815 1582.130249,859.088379 
	C1598.607056,858.661987 1615.101562,858.801025 1631.587891,858.917908 
	C1638.552490,858.967224 1639.885254,858.469421 1640.689209,851.628418 
	C1642.261597,838.249756 1643.664185,835.766418 1628.663696,834.648621 
	C1624.104004,834.308838 1621.791382,831.970825 1621.855347,827.205688 
	C1621.969360,818.709595 1621.838745,810.210266 1621.923462,801.713501 
	C1621.935547,800.500122 1622.190918,798.715515 1622.992920,798.176270 
	C1628.451416,794.506714 1634.086670,791.100098 1639.894287,787.464905 
	C1651.940796,803.456909 1663.586914,818.917542 1675.627686,834.901855 
	C1673.433838,835.430847 1672.325928,835.695984 1671.219116,835.965271 
	C1665.164673,837.438354 1664.177979,838.789001 1665.001831,845.089233 
	C1665.367798,847.886353 1666.451904,850.626404 1666.545410,853.414551 
	C1666.722290,858.696411 1669.511475,859.205750 1674.036987,859.049011 
	C1686.848877,858.605286 1699.686157,858.404663 1712.501221,858.679382 
	C1727.281738,858.996094 1727.589844,858.826172 1728.511719,843.725525 
	C1728.807861,838.872742 1726.692627,836.378479 1722.368774,835.669495 
	C1718.610840,835.053345 1714.750488,834.934753 1710.930176,834.856689 
	C1706.229492,834.760681 1702.848389,832.845764 1700.032715,828.993591 
	C1693.255371,819.721008 1686.210327,810.641296 1679.157593,801.573792 
	C1672.744873,793.329041 1666.179321,785.203064 1659.214722,776.437683 
	C1678.572388,766.251038 1693.674438,749.612854 1716.003052,746.124512 
	C1719.781738,745.534119 1721.939575,743.019958 1721.826294,739.157776 
	C1721.695190,734.682312 1721.454346,730.176147 1720.757080,725.763000 
	C1720.277466,722.726318 1718.531250,721.460693 1714.764160,721.556824 
	C1698.472778,721.972839 1682.161499,721.958618 1665.867188,721.624817 
	C1662.567627,721.557190 1660.875366,722.567871 1660.561523,725.228943 
	C1660.024780,729.781250 1659.233032,734.640747 1660.329224,738.914429 
	C1660.930786,741.259766 1665.172852,742.671204 1668.680786,745.143066 
	C1653.320801,754.441772 1637.945068,763.750000 1621.873413,773.479553 
	C1621.873413,763.446045 1621.873413,754.473022 1621.873535,744.500000 
M298.939758,785.500000 
	C298.938660,798.332764 299.011230,811.166199 298.906403,823.998108 
	C298.851227,830.749634 297.064331,832.411011 290.354919,833.038513 
	C287.378937,833.316772 284.255310,833.441528 281.531464,834.495667 
	C279.678619,835.212708 276.980743,837.563110 277.116913,838.940186 
	C277.697449,844.810852 278.833405,850.703186 280.590729,856.330261 
	C281.066254,857.852966 284.426544,859.355286 286.472534,859.368652 
	C303.780975,859.481873 321.093811,859.034729 338.400757,859.209900 
	C346.786591,859.294678 347.635956,859.095215 349.277802,850.972412 
	C352.374054,835.654175 351.377594,834.303223 335.999664,832.972290 
	C330.084808,832.460327 328.219086,830.736877 328.189362,824.885437 
	C328.092041,805.719971 328.189056,786.553467 328.096191,767.387939 
	C328.083466,764.761230 328.787109,763.317993 331.556458,763.066833 
	C333.538147,762.887207 335.479919,762.292419 337.460541,762.071899 
	C349.477570,760.734192 360.783356,761.572876 369.420807,771.758484 
	C370.322754,772.822083 373.133514,772.967224 374.813507,772.550354 
	C382.314789,770.689331 387.283142,763.495972 386.851562,755.679810 
	C386.390869,747.336121 381.461853,742.065552 372.626801,741.053223 
	C360.883331,739.707581 349.392487,741.675415 337.991394,744.299561 
	C334.847717,745.023132 331.710663,745.775391 328.143250,746.614990 
	C328.143250,730.215881 328.138489,714.560486 328.145447,698.905151 
	C328.148407,692.224792 328.347321,692.015442 335.275787,692.008362 
	C351.941864,691.991333 368.612732,692.225708 385.271057,691.866394 
	C390.248260,691.759033 392.569855,693.159180 394.160675,697.942749 
	C397.199829,707.081360 400.784241,716.064148 404.681183,724.873352 
	C405.614075,726.982117 408.584137,729.337891 410.756714,729.482361 
	C414.058868,729.701904 417.732758,728.606689 420.794495,727.128723 
	C425.012268,725.092773 428.589569,721.646790 426.835541,716.403687 
	C421.723419,701.122742 416.315125,685.936768 410.680176,670.841431 
	C410.127045,669.359741 407.210480,667.883911 405.388885,667.881409 
	C367.739594,667.829407 330.089874,668.089661 292.440491,668.053711 
	C280.522980,668.042358 279.201691,668.813354 277.203491,680.774231 
	C276.957733,682.244995 276.941620,683.760071 276.894897,685.257019 
	C276.722839,690.771973 278.299561,692.804077 283.668518,693.818420 
	C285.130981,694.094727 286.651276,694.104187 288.147797,694.154358 
	C297.650787,694.472839 298.931152,695.788269 298.935547,705.502808 
	C298.947449,731.835205 298.939697,758.167603 298.939758,785.500000 
M872.178284,791.500000 
	C872.178345,809.325073 872.162842,827.150085 872.194458,844.975159 
	C872.199463,847.801331 872.356079,850.631348 872.549255,853.452209 
	C872.842773,857.736084 875.059143,859.337219 879.459900,859.247681 
	C892.934082,858.973572 906.418884,859.197998 919.891357,858.880981 
	C921.643677,858.839722 924.404236,857.085144 924.870483,855.564087 
	C926.117676,851.495178 926.373474,847.121948 927.019104,842.869080 
	C927.628540,838.854370 925.470398,836.946228 921.852905,836.395813 
	C918.072754,835.820557 914.270325,835.318848 910.459045,835.036987 
	C903.441772,834.518005 901.188843,832.476257 901.103577,825.490845 
	C900.967346,814.330872 901.190369,803.166199 901.018860,792.007202 
	C900.834778,780.029419 901.160095,767.970032 899.868225,756.098083 
	C896.956909,729.343262 876.781738,715.024475 850.440063,720.257996 
	C836.959167,722.936340 825.051147,729.034790 814.206909,737.347290 
	C813.003235,738.269958 811.790466,739.180786 809.801453,740.688843 
	C809.801453,735.975769 810.027710,732.468811 809.752380,729.001709 
	C809.244019,722.599731 807.551758,721.463318 801.101440,721.741516 
	C792.632996,722.106750 784.132935,722.632996 775.681702,722.270325 
	C765.785400,721.845642 765.289307,721.880005 763.958008,731.931091 
	C763.892456,732.426331 763.851624,732.924927 763.802979,733.422302 
	C762.695679,744.736389 762.695740,744.736389 773.697754,746.629822 
	C781.729675,748.012085 784.736511,750.949341 784.793823,758.762390 
	C784.958862,781.250732 784.925659,803.741455 784.808838,826.230408 
	C784.777710,832.226929 783.040283,833.879211 777.282349,834.744141 
	C764.293030,836.695312 763.987122,837.107483 765.900635,850.374451 
	C766.089417,851.683228 766.401672,852.975098 766.679443,854.269897 
	C767.460754,857.911926 769.400635,859.154053 773.393738,859.067993 
	C789.871887,858.712891 806.361267,858.716614 822.844727,858.837280 
	C830.648743,858.894348 831.809326,858.544556 832.653687,850.713623 
	C834.057922,837.689697 834.915955,836.029236 821.066040,834.691284 
	C814.995056,834.104797 813.766968,832.561035 813.750061,826.261963 
	C813.693359,805.105103 813.694031,783.947876 813.786438,762.791321 
	C813.792908,761.303223 814.265869,759.217651 815.299622,758.427734 
	C824.185547,751.638000 833.441772,745.448853 844.588562,742.876099 
	C859.101807,739.526245 868.652893,745.285767 870.810730,760.126465 
	C872.261780,770.106323 871.789978,780.365662 872.178284,791.500000 
M609.532288,849.118591 
	C623.282654,817.385315 637.206299,785.724976 650.633850,753.855713 
	C653.246826,747.653931 656.822876,745.013123 663.308167,745.087646 
	C668.168335,745.143494 672.617737,743.155701 673.377258,737.951965 
	C674.053955,733.315613 673.617737,728.405701 672.945679,723.720764 
	C672.459473,720.331360 670.042603,719.184631 666.245728,719.856628 
	C659.554321,721.041138 652.730896,722.118530 645.965820,722.100159 
	C635.548279,722.071899 625.133301,721.080750 613.350891,720.421692 
	C612.425903,726.492554 611.056396,733.429077 610.562561,740.427429 
	C610.461853,741.854187 613.412659,744.362305 615.369263,744.916992 
	C623.413635,747.197266 624.188904,748.267883 621.206848,755.963623 
	C612.796936,777.667847 604.361145,799.362122 595.915405,821.052429 
	C595.395508,822.387390 594.700439,823.654236 593.807922,825.543152 
	C592.795959,823.494629 592.043884,822.088013 591.392456,820.636292 
	C582.134766,800.003235 572.890991,779.363892 563.643311,758.726379 
	C558.832642,747.990723 558.824341,747.960266 570.357239,745.061035 
	C573.572998,744.252686 576.177490,742.820496 575.703003,739.082397 
	C575.012817,733.645386 573.951782,728.254150 572.995483,722.852844 
	C572.484436,719.965942 570.872375,719.390930 567.992859,719.951599 
	C550.816345,723.295776 533.622620,723.299805 516.403198,719.986938 
	C514.880859,719.694031 512.179749,720.586853 511.484131,721.779419 
	C508.185577,727.434448 508.140350,733.587219 510.622192,739.558044 
	C512.670410,744.485901 517.230591,745.057556 521.908447,745.212769 
	C526.344849,745.359924 529.659973,746.953552 531.754395,751.425537 
	C544.451233,778.535095 557.400330,805.526306 570.189026,832.592957 
	C572.795044,838.108521 574.795959,844.103455 583.242493,842.562439 
	C582.617065,844.160583 582.375366,844.938293 582.020569,845.660522 
	C577.840881,854.167725 573.700684,862.695129 569.430908,871.157166 
	C566.846863,876.278259 562.657288,878.889526 556.823853,878.117920 
	C550.752136,877.314819 544.664978,876.512390 538.665833,875.305664 
	C530.941956,873.752014 528.746399,875.499451 527.918640,883.180054 
	C527.091675,890.853333 531.042786,895.153809 537.234680,897.995422 
	C554.983948,906.141113 580.131165,904.203003 592.780884,883.339539 
	C599.207581,872.739746 603.781128,861.016357 609.532288,849.118591 
M1556.989746,759.526978 
	C1554.225952,754.800110 1551.956055,749.688171 1548.619507,745.407837 
	C1523.796387,713.565002 1470.999756,710.161377 1441.134521,738.904663 
	C1421.151489,758.137085 1417.221313,782.600098 1422.793823,808.547729 
	C1429.221558,838.477905 1452.247437,857.990601 1483.082031,861.168518 
	C1509.214600,863.861877 1532.150879,856.436523 1548.374512,835.504150 
	C1566.016846,812.741150 1567.032227,786.842773 1556.989746,759.526978 
M1295.431519,847.072815 
	C1322.987671,866.504272 1358.625244,866.743835 1384.624146,847.672424 
	C1412.471680,827.244934 1420.297852,782.570679 1401.448853,751.634460 
	C1379.087646,714.934387 1322.053711,708.192383 1289.983154,738.428162 
	C1277.224243,750.457031 1270.890503,765.541504 1269.547852,782.691956 
	C1267.564697,808.022461 1274.209473,830.162415 1295.431519,847.072815 
M988.922058,241.479111 
	C957.867981,229.373001 925.878845,222.821838 892.368835,224.883408 
	C877.646729,225.789124 863.272583,228.333115 849.558594,233.751129 
	C841.421143,236.966064 833.603027,240.989471 825.601379,244.667755 
	C825.305908,244.237320 824.941406,243.864212 824.763489,243.416870 
	C824.271973,242.181427 823.825256,240.925598 823.419067,239.659164 
	C816.720947,218.775131 804.989563,200.981186 789.848267,185.338303 
	C769.274536,164.083145 744.754578,148.607620 717.793945,136.849945 
	C712.964966,134.743973 707.863281,132.697723 702.707581,132.044769 
	C695.685181,131.155380 691.358459,137.016083 692.755615,143.990829 
	C693.578186,148.097427 696.226013,150.129791 699.901428,151.516052 
	C724.448059,160.774506 746.651123,174.010284 766.531067,191.120880 
	C791.369202,212.499008 805.467773,240.088730 812.901489,271.517242 
	C813.149048,272.563751 813.558228,273.572052 814.010315,274.961700 
	C819.434998,271.816284 824.471680,268.925842 829.479797,265.986816 
	C853.211853,252.059753 878.374329,243.743744 906.351257,244.822128 
	C932.080811,245.813873 956.773132,251.175583 980.754089,260.266266 
	C987.267029,262.735138 992.875610,261.160370 995.358643,256.106079 
	C998.156128,250.412033 996.197083,245.544922 988.922058,241.479111 
M439.516907,668.115540 
	C434.742767,666.863892 432.761414,669.430969 432.104065,673.639038 
	C431.617706,676.752563 431.062592,679.880615 430.927246,683.018921 
	C430.562775,691.469788 430.645508,691.473389 438.827026,692.621704 
	C449.849915,694.168884 452.011627,696.651062 452.013428,707.857910 
	C452.019592,746.502197 452.016357,785.146484 452.013306,823.790771 
	C452.013184,825.122925 452.031830,826.458679 451.946228,827.786560 
	C451.702362,831.569031 449.969971,834.000488 445.958679,834.517517 
	C442.833466,834.920288 439.495972,834.984070 436.706055,836.220825 
	C434.844055,837.046265 432.665955,839.616577 432.580963,841.494324 
	C432.388641,845.744690 433.296783,850.066345 433.960754,854.327393 
	C434.547089,858.090332 436.777802,859.152893 440.673248,859.069946 
	C456.483887,858.732788 472.305573,858.649231 488.119415,858.819214 
	C498.755188,858.933594 498.997711,858.979126 500.183594,848.212280 
	C500.256561,847.550110 500.364349,846.891663 500.430420,846.228882 
	C501.269440,837.813354 499.659149,835.834900 491.291748,834.990662 
	C481.375641,833.990173 480.918945,833.489075 480.923553,823.290771 
	C480.945160,775.651733 480.986969,728.012695 480.991913,680.373657 
	C480.993195,668.071350 479.794556,667.418213 467.804535,668.243042 
	C458.717010,668.868164 449.544128,668.252563 439.516907,668.115540 
M734.829224,734.638794 
	C734.811157,733.805786 734.811707,732.971924 734.772095,732.139954 
	C734.295776,722.132568 733.370483,721.515198 723.549683,721.917542 
	C714.417175,722.291809 705.249023,722.440735 696.120422,722.082092 
	C687.243225,721.733337 687.144409,721.476685 685.385986,730.091614 
	C685.252869,730.743713 685.129395,731.399658 685.044312,732.059387 
	C683.480469,744.192810 683.794373,744.633423 695.456604,746.735901 
	C703.000183,748.095947 705.671814,751.181641 705.935913,758.905457 
	C705.998535,760.736572 705.955139,762.571350 705.955139,764.404480 
	C705.955505,784.568848 705.983521,804.733215 705.939636,824.897461 
	C705.922852,832.615906 704.437134,834.124512 696.747681,834.935425 
	C694.937866,835.126343 693.147217,835.513794 691.354065,835.844971 
	C687.603333,836.537659 685.890442,838.884644 686.247192,842.597839 
	C686.612183,846.395935 687.108337,850.187866 687.722534,853.953857 
	C688.353516,857.822021 690.479614,859.229004 694.663330,859.142761 
	C711.146606,858.802979 727.639526,858.794495 744.127502,858.892700 
	C751.629761,858.937378 752.598389,858.409546 753.800659,851.046753 
	C753.988220,849.898560 754.040344,848.727234 754.135376,847.565002 
	C754.999207,837.003357 754.118713,835.955139 743.492737,834.876404 
	C736.002014,834.115967 734.847717,832.854065 734.843079,825.092529 
	C734.825256,795.262634 734.833740,765.432739 734.829224,734.638794 
M1245.004272,79.489563 
	C1244.057617,72.091110 1239.305176,68.569176 1232.548584,71.104736 
	C1224.931152,73.963303 1217.361938,77.157234 1210.216675,81.026802 
	C1191.608765,91.104103 1176.564941,104.838409 1167.877686,124.649490 
	C1167.639526,125.192612 1167.034302,125.574699 1166.518188,126.118256 
	C1144.553589,115.361336 1121.765137,113.500648 1098.301758,119.076935 
	C1092.010254,120.572151 1085.732910,122.362152 1079.717529,124.705940 
	C1075.212036,126.461449 1073.536255,131.687927 1075.152344,136.038025 
	C1076.873657,140.671387 1080.966187,142.919769 1085.950806,141.800552 
	C1087.891602,141.364777 1089.742554,140.543015 1091.654297,139.962799 
	C1120.648926,131.163391 1148.198608,132.008408 1172.887573,152.103119 
	C1173.857422,152.892502 1175.120972,153.320969 1176.608643,154.108734 
	C1177.577393,151.377487 1178.210083,148.953415 1179.265137,146.729691 
	C1183.739502,137.298706 1187.144287,127.066429 1193.154541,118.722137 
	C1203.979126,103.693993 1220.004028,95.162270 1237.136475,88.851379 
	C1241.335205,87.304749 1244.647339,85.240326 1245.004272,79.489563 
M730.850403,676.863281 
	C724.077942,667.804932 704.184387,666.416260 696.159119,674.441711 
	C689.299866,681.301147 691.455688,693.983276 700.615173,697.234436 
	C705.929199,699.120728 711.946289,700.046997 717.578796,699.806519 
	C729.930481,699.279236 735.812134,689.118347 730.850403,676.863281 
z"/>
<path fill="#133C45" opacity="1.000000" stroke="none" 
	d="
M1082.602539,558.532715 
	C1057.166870,565.442200 1033.350342,575.263977 1010.897522,588.227600 
	C1004.632080,591.844971 999.053650,591.704895 993.066467,588.271118 
	C963.925049,571.557434 932.928162,559.816406 899.856262,553.710693 
	C870.689148,548.325989 841.398315,547.412903 811.892578,550.724731 
	C771.579712,555.249573 734.019409,567.871094 698.837646,587.889771 
	C690.360413,592.713379 684.333984,592.511841 679.448059,586.691650 
	C677.580994,584.467590 676.115784,581.116882 676.086548,578.263000 
	C675.828674,553.101379 675.976746,527.935913 675.900818,502.771912 
	C675.885437,497.656616 678.368225,494.228851 682.513733,491.836761 
	C718.809753,470.892914 757.431396,456.412933 799.123108,451.055206 
	C814.439270,449.087006 829.933105,447.340698 845.335022,447.426758 
	C885.085449,447.648804 923.833008,454.263611 961.000977,468.893707 
	C962.546021,469.501862 964.123535,470.027771 965.691772,470.575439 
	C965.825623,470.622131 966.003540,470.542542 967.150818,470.389893 
	C965.811951,468.793060 964.811462,467.500092 963.709595,466.300262 
	C938.501648,438.851044 907.698059,419.937897 873.066956,406.839966 
	C842.215088,395.171387 810.355957,387.759308 777.519714,384.949249 
	C761.652771,383.591431 745.693176,383.258209 729.767944,382.666138 
	C722.808960,382.407379 716.593445,376.452606 716.209717,369.099487 
	C715.849731,362.201904 721.769836,355.638763 729.270142,355.275818 
	C736.085510,354.945984 742.937683,355.046173 749.761963,355.287994 
	C788.209900,356.650360 825.922180,362.673187 862.612793,374.285797 
	C903.937988,387.365265 941.658630,407.116425 973.205627,437.299805 
	C981.946899,445.663177 989.323669,455.455292 997.291565,464.622284 
	C998.787109,466.342896 1000.116638,468.207825 1001.882629,470.466400 
	C1005.455811,465.856842 1008.598328,461.639709 1011.908813,457.558838 
	C1033.121948,431.409363 1059.312378,411.528778 1089.005371,395.923340 
	C1120.569458,379.334564 1154.189209,368.732666 1189.087402,362.597717 
	C1209.168701,359.067505 1229.680176,357.915192 1250.026611,355.995514 
	C1257.632202,355.277893 1265.328857,355.052063 1272.966431,355.255951 
	C1284.915649,355.574951 1291.173706,366.299377 1285.429810,376.062775 
	C1282.706665,380.691528 1278.319336,382.451385 1273.258789,382.652374 
	C1258.489258,383.238861 1243.665039,383.105896 1228.953003,384.338776 
	C1202.349976,386.568176 1176.308594,392.033508 1150.802002,399.973450 
	C1108.275269,413.211578 1069.890869,433.327698 1039.594849,466.886047 
	C1038.732300,467.841309 1037.959229,468.877319 1037.581177,470.678650 
	C1038.860840,470.266541 1040.164551,469.916626 1041.416626,469.433228 
	C1076.050903,456.062561 1111.862793,449.039978 1149.030273,447.795135 
	C1204.745850,445.929138 1256.953491,458.675262 1306.515381,483.473938 
	C1311.574219,486.005157 1316.417969,488.967194 1321.352173,491.745728 
	C1325.960815,494.340912 1328.181274,498.145081 1328.156250,503.586670 
	C1328.044189,527.917114 1327.634033,552.262390 1328.343506,576.572754 
	C1328.640503,586.748657 1318.133667,595.254333 1306.633179,588.777527 
	C1295.339722,582.417358 1283.746948,576.436646 1271.824585,571.375732 
	C1243.437988,559.325928 1213.775146,552.247009 1182.962769,549.778992 
	C1149.117554,547.068115 1115.818359,549.772888 1082.602539,558.532715 
M798.380188,524.877075 
	C814.639160,523.651184 830.902466,521.334595 847.156311,521.399353 
	C900.683594,521.612488 951.187744,534.466492 998.288452,560.110352 
	C1000.941589,561.554871 1002.818726,561.558350 1005.483948,560.102478 
	C1045.918945,538.014893 1089.190186,525.472595 1135.116211,522.112854 
	C1188.436279,518.212280 1239.474854,527.576843 1288.447632,548.752747 
	C1292.506470,550.507874 1296.526001,552.354187 1301.123657,554.408264 
	C1301.123657,541.191650 1300.979736,528.574219 1301.219849,515.964050 
	C1301.283813,512.601624 1300.084961,510.962189 1297.273560,509.446350 
	C1259.958740,489.326965 1220.099976,477.837830 1177.873047,475.197845 
	C1118.899902,471.510895 1063.467529,483.957031 1012.215149,513.705994 
	C1005.085815,517.844116 998.859680,518.018677 991.754333,513.753296 
	C969.091370,500.148895 944.699280,490.524780 919.162964,483.911011 
	C882.986267,474.541473 846.321777,472.328735 809.195618,476.879028 
	C773.131165,481.299133 739.219055,492.280243 707.090332,509.118591 
	C703.604553,510.945404 702.580261,513.097534 702.668640,516.885132 
	C702.929138,528.042175 702.750305,539.209290 702.778076,550.372375 
	C702.781128,551.584045 703.010376,552.795105 703.187744,554.524231 
	C733.562073,539.940552 764.653076,529.604004 798.380188,524.877075 
z"/>
<path fill="#FEFEFE" opacity="1.000000" stroke="none" 
	d="
M1232.158203,758.842896 
	C1249.969971,769.033936 1259.626831,783.818115 1259.118042,804.276672 
	C1258.609863,824.703308 1248.416992,839.565247 1231.156860,849.739624 
	C1216.751831,858.230957 1200.839111,860.066772 1184.424438,859.793030 
	C1157.942871,859.351379 1131.455811,859.229187 1104.970825,859.010010 
	C1102.643188,858.990723 1100.307739,859.188232 1097.985474,859.393433 
	C1091.839355,859.936584 1089.835693,858.887268 1088.137573,853.024597 
	C1087.036377,849.222473 1086.651367,845.206177 1086.038330,841.271362 
	C1085.398438,837.164490 1087.545532,834.984192 1091.331421,834.208008 
	C1093.773071,833.707458 1096.250854,833.300537 1098.732544,833.093018 
	C1106.732178,832.423828 1108.046021,831.077881 1108.054321,822.853699 
	C1108.077271,800.187866 1108.062988,777.521973 1108.062744,754.856140 
	C1108.062622,738.023376 1108.085693,721.190613 1108.050781,704.357910 
	C1108.033447,696.002502 1106.473755,694.442993 1098.226807,694.165283 
	C1096.562500,694.109314 1094.876343,694.140076 1093.241211,693.876709 
	C1087.644531,692.975037 1085.778076,690.751160 1086.054565,685.129089 
	C1086.176514,682.651428 1086.602295,680.172607 1087.079346,677.731384 
	C1088.795898,668.947632 1090.546753,667.949707 1099.274170,667.952698 
	C1126.247192,667.961853 1153.225708,667.931458 1180.191040,667.377441 
	C1193.014282,667.113953 1205.508911,667.700928 1217.278564,673.287781 
	C1237.610840,682.939026 1250.116577,707.449829 1244.947388,727.909546 
	C1242.261230,738.541016 1236.151123,746.827393 1226.413940,752.215820 
	C1225.277100,752.844971 1224.147949,753.487915 1222.510132,754.408325 
	C1225.954346,755.990540 1228.889160,757.338867 1232.158203,758.842896 
M1187.471313,836.000000 
	C1194.367432,835.121460 1201.512207,835.106384 1208.113403,833.204407 
	C1228.955322,827.199219 1237.531494,803.549316 1225.832031,785.457092 
	C1217.948486,773.266174 1205.826050,768.757446 1192.157349,768.221802 
	C1177.028076,767.628906 1161.863770,767.925842 1146.714722,767.841736 
	C1143.774536,767.825439 1140.833984,767.839417 1137.527710,767.839417 
	C1137.527710,789.727234 1137.528564,811.000488 1137.526978,832.273804 
	C1137.526733,835.758484 1139.682007,836.064270 1142.526001,836.045227 
	C1157.176880,835.947205 1171.828735,835.999939 1187.471313,836.000000 
M1154.503418,747.552979 
	C1167.137939,747.381836 1179.790039,747.566467 1192.402344,746.944763 
	C1206.511597,746.249268 1217.901001,734.136597 1218.003174,720.569092 
	C1218.126831,704.150696 1207.938599,691.634155 1192.695190,690.903992 
	C1177.427734,690.172607 1162.107056,690.550232 1146.809692,690.449585 
	C1143.865845,690.430237 1140.921875,690.446838 1137.756958,690.446838 
	C1137.756958,709.739563 1137.756958,728.402527 1137.756958,747.552612 
	C1143.260620,747.552612 1148.383301,747.552612 1154.503418,747.552979 
z"/>
<path fill="#FDFEFE" opacity="1.000000" stroke="none" 
	d="
M1048.890259,911.922363 
	C1037.282471,917.558960 1025.207764,919.642944 1012.848694,920.453796 
	C994.319031,921.669617 975.900574,921.369263 957.878235,916.110657 
	C957.718750,916.064026 957.549683,916.050476 957.390137,916.004089 
	C941.269775,911.313232 937.395447,905.389893 940.909668,888.970886 
	C943.022278,879.100525 946.172974,869.452332 949.071899,858.924377 
	C949.478699,859.636108 949.394287,859.242859 949.169250,859.129883 
	C936.225586,852.637390 931.587524,841.568848 937.922913,828.553223 
	C941.544922,821.112061 947.496826,814.805115 952.642456,807.649780 
	C945.817993,802.398132 940.246155,794.912048 937.260620,785.616882 
	C930.541138,764.695984 940.596680,740.082458 961.308167,728.530457 
	C982.256226,716.846558 1003.975525,715.620178 1025.860596,726.083496 
	C1028.886963,727.530396 1029.951782,726.104248 1031.557739,724.309143 
	C1040.941772,713.819702 1052.292725,708.518982 1066.685303,710.697510 
	C1070.969604,711.346008 1072.737427,713.467712 1073.060303,717.533447 
	C1074.226440,732.222778 1071.517090,735.262756 1056.675659,735.528992 
	C1051.727417,735.617798 1046.776245,735.543030 1042.979248,735.543030 
	C1046.866699,741.580566 1052.202393,747.720154 1055.161987,754.846497 
	C1066.231934,781.501831 1052.961060,808.687744 1025.207275,817.005981 
	C1008.422974,822.036499 991.389404,822.444336 974.472900,817.571899 
	C970.581177,816.451050 969.177551,817.628235 967.952820,821.037781 
	C963.004578,834.812500 965.965088,839.439941 980.647278,840.067871 
	C996.614502,840.750793 1012.599365,841.072876 1028.554565,841.952148 
	C1033.651611,842.233154 1038.744141,843.532349 1043.725220,844.808838 
	C1063.165771,849.790833 1071.329102,861.748596 1068.807495,881.639587 
	C1067.143921,894.762207 1061.298706,905.329041 1048.890259,911.922363 
M976.455017,795.235657 
	C988.215576,800.501831 1000.371948,800.575562 1012.518188,797.276428 
	C1032.210449,791.927734 1038.975342,769.319458 1026.744995,752.936401 
	C1015.208801,737.483337 985.590454,738.360657 973.838989,747.326538 
	C958.351013,759.143127 958.627747,784.971741 976.455017,795.235657 
M985.023987,896.629883 
	C993.334229,897.047119 1001.685303,898.155396 1009.942017,897.667297 
	C1016.783447,897.262817 1023.835327,895.796143 1030.204102,893.296936 
	C1036.817383,890.701904 1039.424927,884.506592 1038.989990,877.343445 
	C1038.596924,870.868347 1033.838013,868.440674 1028.654297,866.594788 
	C1026.480469,865.820740 1024.161743,865.141602 1021.879578,865.032776 
	C1002.449890,864.106628 983.013550,863.321716 962.648010,862.454895 
	C963.255005,869.299988 963.504578,876.428101 964.613525,883.419983 
	C965.749390,890.581848 970.074341,894.996765 977.727966,895.515564 
	C979.880432,895.661499 982.011230,896.127014 985.023987,896.629883 
z"/>
<path fill="#FDFEFE" opacity="1.000000" stroke="none" 
	d="
M1621.873535,745.000000 
	C1621.873413,754.473022 1621.873413,763.446045 1621.873413,773.479553 
	C1637.945068,763.750000 1653.320801,754.441772 1668.680786,745.143066 
	C1665.172852,742.671204 1660.930786,741.259766 1660.329224,738.914429 
	C1659.233032,734.640747 1660.024780,729.781250 1660.561523,725.228943 
	C1660.875366,722.567871 1662.567627,721.557190 1665.867188,721.624817 
	C1682.161499,721.958618 1698.472778,721.972839 1714.764160,721.556824 
	C1718.531250,721.460693 1720.277466,722.726318 1720.757080,725.763000 
	C1721.454346,730.176147 1721.695190,734.682312 1721.826294,739.157776 
	C1721.939575,743.019958 1719.781738,745.534119 1716.003052,746.124512 
	C1693.674438,749.612854 1678.572388,766.251038 1659.214722,776.437683 
	C1666.179321,785.203064 1672.744873,793.329041 1679.157593,801.573792 
	C1686.210327,810.641296 1693.255371,819.721008 1700.032715,828.993591 
	C1702.848389,832.845764 1706.229492,834.760681 1710.930176,834.856689 
	C1714.750488,834.934753 1718.610840,835.053345 1722.368774,835.669495 
	C1726.692627,836.378479 1728.807861,838.872742 1728.511719,843.725525 
	C1727.589844,858.826172 1727.281738,858.996094 1712.501221,858.679382 
	C1699.686157,858.404663 1686.848877,858.605286 1674.036987,859.049011 
	C1669.511475,859.205750 1666.722290,858.696411 1666.545410,853.414551 
	C1666.451904,850.626404 1665.367798,847.886353 1665.001831,845.089233 
	C1664.177979,838.789001 1665.164673,837.438354 1671.219116,835.965271 
	C1672.325928,835.695984 1673.433838,835.430847 1675.627686,834.901855 
	C1663.586914,818.917542 1651.940796,803.456909 1639.894287,787.464905 
	C1634.086670,791.100098 1628.451416,794.506714 1622.992920,798.176270 
	C1622.190918,798.715515 1621.935547,800.500122 1621.923462,801.713501 
	C1621.838745,810.210266 1621.969360,818.709595 1621.855347,827.205688 
	C1621.791382,831.970825 1624.104004,834.308838 1628.663696,834.648621 
	C1643.664185,835.766418 1642.261597,838.249756 1640.689209,851.628418 
	C1639.885254,858.469421 1638.552490,858.967224 1631.587891,858.917908 
	C1615.101562,858.801025 1598.607056,858.661987 1582.130249,859.088379 
	C1577.398804,859.210815 1575.392456,857.564636 1574.556152,853.409607 
	C1574.392578,852.596313 1574.142944,851.792908 1574.059082,850.972046 
	C1572.857300,839.204468 1570.790649,835.923218 1585.855347,834.622620 
	C1591.578247,834.128479 1592.954346,832.034668 1592.969849,825.315247 
	C1593.019653,803.821106 1592.990356,782.326782 1592.990845,760.832520 
	C1592.991211,742.837341 1593.009399,724.842102 1592.982910,706.846924 
	C1592.968506,697.055786 1590.317383,694.052246 1580.727539,692.768738 
	C1579.076904,692.547791 1577.184814,692.749146 1575.839478,691.987061 
	C1574.261475,691.093384 1572.455688,689.551636 1572.017822,687.945129 
	C1571.385864,685.626587 1571.804077,682.992004 1571.934326,680.500671 
	C1572.553589,668.662231 1573.848877,667.943176 1585.433960,668.593628 
	C1594.040649,669.076782 1602.728516,668.522095 1611.359375,668.050232 
	C1620.077881,667.573669 1621.840332,668.765015 1621.881592,677.518921 
	C1621.986694,699.845459 1621.889648,722.172913 1621.873535,745.000000 
z"/>
<path fill="#FEFEFE" opacity="1.000000" stroke="none" 
	d="
M298.939758,785.000000 
	C298.939697,758.167603 298.947449,731.835205 298.935547,705.502808 
	C298.931152,695.788269 297.650787,694.472839 288.147797,694.154358 
	C286.651276,694.104187 285.130981,694.094727 283.668518,693.818420 
	C278.299561,692.804077 276.722839,690.771973 276.894897,685.257019 
	C276.941620,683.760071 276.957733,682.244995 277.203491,680.774231 
	C279.201691,668.813354 280.522980,668.042358 292.440491,668.053711 
	C330.089874,668.089661 367.739594,667.829407 405.388885,667.881409 
	C407.210480,667.883911 410.127045,669.359741 410.680176,670.841431 
	C416.315125,685.936768 421.723419,701.122742 426.835541,716.403687 
	C428.589569,721.646790 425.012268,725.092773 420.794495,727.128723 
	C417.732758,728.606689 414.058868,729.701904 410.756714,729.482361 
	C408.584137,729.337891 405.614075,726.982117 404.681183,724.873352 
	C400.784241,716.064148 397.199829,707.081360 394.160675,697.942749 
	C392.569855,693.159180 390.248260,691.759033 385.271057,691.866394 
	C368.612732,692.225708 351.941864,691.991333 335.275787,692.008362 
	C328.347321,692.015442 328.148407,692.224792 328.145447,698.905151 
	C328.138489,714.560486 328.143250,730.215881 328.143250,746.614990 
	C331.710663,745.775391 334.847717,745.023132 337.991394,744.299561 
	C349.392487,741.675415 360.883331,739.707581 372.626801,741.053223 
	C381.461853,742.065552 386.390869,747.336121 386.851562,755.679810 
	C387.283142,763.495972 382.314789,770.689331 374.813507,772.550354 
	C373.133514,772.967224 370.322754,772.822083 369.420807,771.758484 
	C360.783356,761.572876 349.477570,760.734192 337.460541,762.071899 
	C335.479919,762.292419 333.538147,762.887207 331.556458,763.066833 
	C328.787109,763.317993 328.083466,764.761230 328.096191,767.387939 
	C328.189056,786.553467 328.092041,805.719971 328.189362,824.885437 
	C328.219086,830.736877 330.084808,832.460327 335.999664,832.972290 
	C351.377594,834.303223 352.374054,835.654175 349.277802,850.972412 
	C347.635956,859.095215 346.786591,859.294678 338.400757,859.209900 
	C321.093811,859.034729 303.780975,859.481873 286.472534,859.368652 
	C284.426544,859.355286 281.066254,857.852966 280.590729,856.330261 
	C278.833405,850.703186 277.697449,844.810852 277.116913,838.940186 
	C276.980743,837.563110 279.678619,835.212708 281.531464,834.495667 
	C284.255310,833.441528 287.378937,833.316772 290.354919,833.038513 
	C297.064331,832.411011 298.851227,830.749634 298.906403,823.998108 
	C299.011230,811.166199 298.938660,798.332764 298.939758,785.000000 
z"/>
<path fill="#FDFEFE" opacity="1.000000" stroke="none" 
	d="
M872.178345,791.000000 
	C871.789978,780.365662 872.261780,770.106323 870.810730,760.126465 
	C868.652893,745.285767 859.101807,739.526245 844.588562,742.876099 
	C833.441772,745.448853 824.185547,751.638000 815.299622,758.427734 
	C814.265869,759.217651 813.792908,761.303223 813.786438,762.791321 
	C813.694031,783.947876 813.693359,805.105103 813.750061,826.261963 
	C813.766968,832.561035 814.995056,834.104797 821.066040,834.691284 
	C834.915955,836.029236 834.057922,837.689697 832.653687,850.713623 
	C831.809326,858.544556 830.648743,858.894348 822.844727,858.837280 
	C806.361267,858.716614 789.871887,858.712891 773.393738,859.067993 
	C769.400635,859.154053 767.460754,857.911926 766.679443,854.269897 
	C766.401672,852.975098 766.089417,851.683228 765.900635,850.374451 
	C763.987122,837.107483 764.293030,836.695312 777.282349,834.744141 
	C783.040283,833.879211 784.777710,832.226929 784.808838,826.230408 
	C784.925659,803.741455 784.958862,781.250732 784.793823,758.762390 
	C784.736511,750.949341 781.729675,748.012085 773.697754,746.629822 
	C762.695740,744.736389 762.695679,744.736389 763.802979,733.422302 
	C763.851624,732.924927 763.892456,732.426331 763.958008,731.931091 
	C765.289307,721.880005 765.785400,721.845642 775.681702,722.270325 
	C784.132935,722.632996 792.632996,722.106750 801.101440,721.741516 
	C807.551758,721.463318 809.244019,722.599731 809.752380,729.001709 
	C810.027710,732.468811 809.801453,735.975769 809.801453,740.688843 
	C811.790466,739.180786 813.003235,738.269958 814.206909,737.347290 
	C825.051147,729.034790 836.959167,722.936340 850.440063,720.257996 
	C876.781738,715.024475 896.956909,729.343262 899.868225,756.098083 
	C901.160095,767.970032 900.834778,780.029419 901.018860,792.007202 
	C901.190369,803.166199 900.967346,814.330872 901.103577,825.490845 
	C901.188843,832.476257 903.441772,834.518005 910.459045,835.036987 
	C914.270325,835.318848 918.072754,835.820557 921.852905,836.395813 
	C925.470398,836.946228 927.628540,838.854370 927.019104,842.869080 
	C926.373474,847.121948 926.117676,851.495178 924.870483,855.564087 
	C924.404236,857.085144 921.643677,858.839722 919.891357,858.880981 
	C906.418884,859.197998 892.934082,858.973572 879.459900,859.247681 
	C875.059143,859.337219 872.842773,857.736084 872.549255,853.452209 
	C872.356079,850.631348 872.199463,847.801331 872.194458,844.975159 
	C872.162842,827.150085 872.178345,809.325073 872.178345,791.000000 
z"/>
<path fill="#FDFEFE" opacity="1.000000" stroke="none" 
	d="
M609.362305,849.459717 
	C603.781128,861.016357 599.207581,872.739746 592.780884,883.339539 
	C580.131165,904.203003 554.983948,906.141113 537.234680,897.995422 
	C531.042786,895.153809 527.091675,890.853333 527.918640,883.180054 
	C528.746399,875.499451 530.941956,873.752014 538.665833,875.305664 
	C544.664978,876.512390 550.752136,877.314819 556.823853,878.117920 
	C562.657288,878.889526 566.846863,876.278259 569.430908,871.157166 
	C573.700684,862.695129 577.840881,854.167725 582.020569,845.660522 
	C582.375366,844.938293 582.617065,844.160583 583.242493,842.562439 
	C574.795959,844.103455 572.795044,838.108521 570.189026,832.592957 
	C557.400330,805.526306 544.451233,778.535095 531.754395,751.425537 
	C529.659973,746.953552 526.344849,745.359924 521.908447,745.212769 
	C517.230591,745.057556 512.670410,744.485901 510.622192,739.558044 
	C508.140350,733.587219 508.185577,727.434448 511.484131,721.779419 
	C512.179749,720.586853 514.880859,719.694031 516.403198,719.986938 
	C533.622620,723.299805 550.816345,723.295776 567.992859,719.951599 
	C570.872375,719.390930 572.484436,719.965942 572.995483,722.852844 
	C573.951782,728.254150 575.012817,733.645386 575.703003,739.082397 
	C576.177490,742.820496 573.572998,744.252686 570.357239,745.061035 
	C558.824341,747.960266 558.832642,747.990723 563.643311,758.726379 
	C572.890991,779.363892 582.134766,800.003235 591.392456,820.636292 
	C592.043884,822.088013 592.795959,823.494629 593.807922,825.543152 
	C594.700439,823.654236 595.395508,822.387390 595.915405,821.052429 
	C604.361145,799.362122 612.796936,777.667847 621.206848,755.963623 
	C624.188904,748.267883 623.413635,747.197266 615.369263,744.916992 
	C613.412659,744.362305 610.461853,741.854187 610.562561,740.427429 
	C611.056396,733.429077 612.425903,726.492554 613.350891,720.421692 
	C625.133301,721.080750 635.548279,722.071899 645.965820,722.100159 
	C652.730896,722.118530 659.554321,721.041138 666.245728,719.856628 
	C670.042603,719.184631 672.459473,720.331360 672.945679,723.720764 
	C673.617737,728.405701 674.053955,733.315613 673.377258,737.951965 
	C672.617737,743.155701 668.168335,745.143494 663.308167,745.087646 
	C656.822876,745.013123 653.246826,747.653931 650.633850,753.855713 
	C637.206299,785.724976 623.282654,817.385315 609.362305,849.459717 
z"/>
<path fill="#FDFEFE" opacity="1.000000" stroke="none" 
	d="
M1557.125000,759.885498 
	C1567.032227,786.842773 1566.016846,812.741150 1548.374512,835.504150 
	C1532.150879,856.436523 1509.214600,863.861877 1483.082031,861.168518 
	C1452.247437,857.990601 1429.221558,838.477905 1422.793823,808.547729 
	C1417.221313,782.600098 1421.151489,758.137085 1441.134521,738.904663 
	C1470.999756,710.161377 1523.796387,713.565002 1548.619507,745.407837 
	C1551.956055,749.688171 1554.225952,754.800110 1557.125000,759.885498 
M1461.166748,825.296326 
	C1482.060913,849.906189 1516.839600,840.729675 1527.633911,817.001465 
	C1535.189087,800.393494 1535.727783,783.244690 1528.775879,766.519531 
	C1516.318604,736.549438 1479.427002,732.244995 1459.558960,757.906311 
	C1447.432983,773.568359 1446.890259,808.510071 1461.166748,825.296326 
z"/>
<path fill="#FDFEFE" opacity="1.000000" stroke="none" 
	d="
M1295.147949,846.856628 
	C1274.209473,830.162415 1267.564697,808.022461 1269.547852,782.691956 
	C1270.890503,765.541504 1277.224243,750.457031 1289.983154,738.428162 
	C1322.053711,708.192383 1379.087646,714.934387 1401.448853,751.634460 
	C1420.297852,782.570679 1412.471680,827.244934 1384.624146,847.672424 
	C1358.625244,866.743835 1322.987671,866.504272 1295.147949,846.856628 
M1334.358032,741.601074 
	C1321.579712,743.847351 1311.996216,750.830994 1305.596924,761.903564 
	C1297.861206,775.288269 1297.611694,789.904541 1300.209717,804.598633 
	C1303.802490,824.918762 1319.510376,839.365540 1339.129639,839.788757 
	C1356.525391,840.164001 1373.067383,830.076782 1379.186890,809.168701 
	C1382.093384,799.238770 1382.444702,789.228699 1380.990479,779.033142 
	C1377.531860,754.786194 1358.229614,738.884033 1334.358032,741.601074 
z"/>
<path fill="#133C45" opacity="1.000000" stroke="none" 
	d="
M989.262207,241.642029 
	C996.197083,245.544922 998.156128,250.412033 995.358643,256.106079 
	C992.875610,261.160370 987.267029,262.735138 980.754089,260.266266 
	C956.773132,251.175583 932.080811,245.813873 906.351257,244.822128 
	C878.374329,243.743744 853.211853,252.059753 829.479797,265.986816 
	C824.471680,268.925842 819.434998,271.816284 814.010315,274.961700 
	C813.558228,273.572052 813.149048,272.563751 812.901489,271.517242 
	C805.467773,240.088730 791.369202,212.499008 766.531067,191.120880 
	C746.651123,174.010284 724.448059,160.774506 699.901428,151.516052 
	C696.226013,150.129791 693.578186,148.097427 692.755615,143.990829 
	C691.358459,137.016083 695.685181,131.155380 702.707581,132.044769 
	C707.863281,132.697723 712.964966,134.743973 717.793945,136.849945 
	C744.754578,148.607620 769.274536,164.083145 789.848267,185.338303 
	C804.989563,200.981186 816.720947,218.775131 823.419067,239.659164 
	C823.825256,240.925598 824.271973,242.181427 824.763489,243.416870 
	C824.941406,243.864212 825.305908,244.237320 825.601379,244.667755 
	C833.603027,240.989471 841.421143,236.966064 849.558594,233.751129 
	C863.272583,228.333115 877.646729,225.789124 892.368835,224.883408 
	C925.878845,222.821838 957.867981,229.373001 989.262207,241.642029 
z"/>
<path fill="#FEFEFE" opacity="1.000000" stroke="none" 
	d="
M439.963074,668.152283 
	C449.544128,668.252563 458.717010,668.868164 467.804535,668.243042 
	C479.794556,667.418213 480.993195,668.071350 480.991913,680.373657 
	C480.986969,728.012695 480.945160,775.651733 480.923553,823.290771 
	C480.918945,833.489075 481.375641,833.990173 491.291748,834.990662 
	C499.659149,835.834900 501.269440,837.813354 500.430420,846.228882 
	C500.364349,846.891663 500.256561,847.550110 500.183594,848.212280 
	C498.997711,858.979126 498.755188,858.933594 488.119415,858.819214 
	C472.305573,858.649231 456.483887,858.732788 440.673248,859.069946 
	C436.777802,859.152893 434.547089,858.090332 433.960754,854.327393 
	C433.296783,850.066345 432.388641,845.744690 432.580963,841.494324 
	C432.665955,839.616577 434.844055,837.046265 436.706055,836.220825 
	C439.495972,834.984070 442.833466,834.920288 445.958679,834.517517 
	C449.969971,834.000488 451.702362,831.569031 451.946228,827.786560 
	C452.031830,826.458679 452.013184,825.122925 452.013306,823.790771 
	C452.016357,785.146484 452.019592,746.502197 452.013428,707.857910 
	C452.011627,696.651062 449.849915,694.168884 438.827026,692.621704 
	C430.645508,691.473389 430.562775,691.469788 430.927246,683.018921 
	C431.062592,679.880615 431.617706,676.752563 432.104065,673.639038 
	C432.761414,669.430969 434.742767,666.863892 439.963074,668.152283 
z"/>
<path fill="#FDFEFE" opacity="1.000000" stroke="none" 
	d="
M734.830811,735.120850 
	C734.833740,765.432739 734.825256,795.262634 734.843079,825.092529 
	C734.847717,832.854065 736.002014,834.115967 743.492737,834.876404 
	C754.118713,835.955139 754.999207,837.003357 754.135376,847.565002 
	C754.040344,848.727234 753.988220,849.898560 753.800659,851.046753 
	C752.598389,858.409546 751.629761,858.937378 744.127502,858.892700 
	C727.639526,858.794495 711.146606,858.802979 694.663330,859.142761 
	C690.479614,859.229004 688.353516,857.822021 687.722534,853.953857 
	C687.108337,850.187866 686.612183,846.395935 686.247192,842.597839 
	C685.890442,838.884644 687.603333,836.537659 691.354065,835.844971 
	C693.147217,835.513794 694.937866,835.126343 696.747681,834.935425 
	C704.437134,834.124512 705.922852,832.615906 705.939636,824.897461 
	C705.983521,804.733215 705.955505,784.568848 705.955139,764.404480 
	C705.955139,762.571350 705.998535,760.736572 705.935913,758.905457 
	C705.671814,751.181641 703.000183,748.095947 695.456604,746.735901 
	C683.794373,744.633423 683.480469,744.192810 685.044312,732.059387 
	C685.129395,731.399658 685.252869,730.743713 685.385986,730.091614 
	C687.144409,721.476685 687.243225,721.733337 696.120422,722.082092 
	C705.249023,722.440735 714.417175,722.291809 723.549683,721.917542 
	C733.370483,721.515198 734.295776,722.132568 734.772095,732.139954 
	C734.811707,732.971924 734.811157,733.805786 734.830811,735.120850 
z"/>
<path fill="#133C45" opacity="1.000000" stroke="none" 
	d="
M1245.000000,79.893593 
	C1244.647339,85.240326 1241.335205,87.304749 1237.136475,88.851379 
	C1220.004028,95.162270 1203.979126,103.693993 1193.154541,118.722137 
	C1187.144287,127.066429 1183.739502,137.298706 1179.265137,146.729691 
	C1178.210083,148.953415 1177.577393,151.377487 1176.608643,154.108734 
	C1175.120972,153.320969 1173.857422,152.892502 1172.887573,152.103119 
	C1148.198608,132.008408 1120.648926,131.163391 1091.654297,139.962799 
	C1089.742554,140.543015 1087.891602,141.364777 1085.950806,141.800552 
	C1080.966187,142.919769 1076.873657,140.671387 1075.152344,136.038025 
	C1073.536255,131.687927 1075.212036,126.461449 1079.717529,124.705940 
	C1085.732910,122.362152 1092.010254,120.572151 1098.301758,119.076935 
	C1121.765137,113.500648 1144.553589,115.361336 1166.518188,126.118256 
	C1167.034302,125.574699 1167.639526,125.192612 1167.877686,124.649490 
	C1176.564941,104.838409 1191.608765,91.104103 1210.216675,81.026802 
	C1217.361938,77.157234 1224.931152,73.963303 1232.548584,71.104736 
	C1239.305176,68.569176 1244.057617,72.091110 1245.000000,79.893593 
z"/>
<path fill="#FCFDFD" opacity="1.000000" stroke="none" 
	d="
M731.007568,677.213257 
	C735.812134,689.118347 729.930481,699.279236 717.578796,699.806519 
	C711.946289,700.046997 705.929199,699.120728 700.615173,697.234436 
	C691.455688,693.983276 689.299866,681.301147 696.159119,674.441711 
	C704.184387,666.416260 724.077942,667.804932 731.007568,677.213257 
z"/>
<path fill="#FEFEFE" opacity="1.000000" stroke="none" 
	d="
M797.941162,524.921997 
	C764.653076,529.604004 733.562073,539.940552 703.187744,554.524231 
	C703.010376,552.795105 702.781128,551.584045 702.778076,550.372375 
	C702.750305,539.209290 702.929138,528.042175 702.668640,516.885132 
	C702.580261,513.097534 703.604553,510.945404 707.090332,509.118591 
	C739.219055,492.280243 773.131165,481.299133 809.195618,476.879028 
	C846.321777,472.328735 882.986267,474.541473 919.162964,483.911011 
	C944.699280,490.524780 969.091370,500.148895 991.754333,513.753296 
	C998.859680,518.018677 1005.085815,517.844116 1012.215149,513.705994 
	C1063.467529,483.957031 1118.899902,471.510895 1177.873047,475.197845 
	C1220.099976,477.837830 1259.958740,489.326965 1297.273560,509.446350 
	C1300.084961,510.962189 1301.283813,512.601624 1301.219849,515.964050 
	C1300.979736,528.574219 1301.123657,541.191650 1301.123657,554.408264 
	C1296.526001,552.354187 1292.506470,550.507874 1288.447632,548.752747 
	C1239.474854,527.576843 1188.436279,518.212280 1135.116211,522.112854 
	C1089.190186,525.472595 1045.918945,538.014893 1005.483948,560.102478 
	C1002.818726,561.558350 1000.941589,561.554871 998.288452,560.110352 
	C951.187744,534.466492 900.683594,521.612488 847.156311,521.399353 
	C830.902466,521.334595 814.639160,523.651184 797.941162,524.921997 
z"/>
<path fill="#46828F" opacity="1.000000" stroke="none" 
	d="
M1186.975830,836.000000 
	C1171.828735,835.999939 1157.176880,835.947205 1142.526001,836.045227 
	C1139.682007,836.064270 1137.526733,835.758484 1137.526978,832.273804 
	C1137.528564,811.000488 1137.527710,789.727234 1137.527710,767.839417 
	C1140.833984,767.839417 1143.774536,767.825439 1146.714722,767.841736 
	C1161.863770,767.925842 1177.028076,767.628906 1192.157349,768.221802 
	C1205.826050,768.757446 1217.948486,773.266174 1225.832031,785.457092 
	C1237.531494,803.549316 1228.955322,827.199219 1208.113403,833.204407 
	C1201.512207,835.106384 1194.367432,835.121460 1186.975830,836.000000 
z"/>
<path fill="#498390" opacity="1.000000" stroke="none" 
	d="
M1154.004761,747.552795 
	C1148.383301,747.552612 1143.260620,747.552612 1137.756958,747.552612 
	C1137.756958,728.402527 1137.756958,709.739563 1137.756958,690.446838 
	C1140.921875,690.446838 1143.865845,690.430237 1146.809692,690.449585 
	C1162.107056,690.550232 1177.427734,690.172607 1192.695190,690.903992 
	C1207.938599,691.634155 1218.126831,704.150696 1218.003174,720.569092 
	C1217.901001,734.136597 1206.511597,746.249268 1192.402344,746.944763 
	C1179.790039,747.566467 1167.137939,747.381836 1154.004761,747.552795 
z"/>
<path fill="#46828F" opacity="1.000000" stroke="none" 
	d="
M976.113403,795.084351 
	C958.627747,784.971741 958.351013,759.143127 973.838989,747.326538 
	C985.590454,738.360657 1015.208801,737.483337 1026.744995,752.936401 
	C1038.975342,769.319458 1032.210449,791.927734 1012.518188,797.276428 
	C1000.371948,800.575562 988.215576,800.501831 976.113403,795.084351 
z"/>
<path fill="#47828F" opacity="1.000000" stroke="none" 
	d="
M984.588013,896.537964 
	C982.011230,896.127014 979.880432,895.661499 977.727966,895.515564 
	C970.074341,894.996765 965.749390,890.581848 964.613525,883.419983 
	C963.504578,876.428101 963.255005,869.299988 962.648010,862.454895 
	C983.013550,863.321716 1002.449890,864.106628 1021.879578,865.032776 
	C1024.161743,865.141602 1026.480469,865.820740 1028.654297,866.594788 
	C1033.838013,868.440674 1038.596924,870.868347 1038.989990,877.343445 
	C1039.424927,884.506592 1036.817383,890.701904 1030.204102,893.296936 
	C1023.835327,895.796143 1016.783447,897.262817 1009.942017,897.667297 
	C1001.685303,898.155396 993.334229,897.047119 984.588013,896.537964 
z"/>
<path fill="#46828F" opacity="1.000000" stroke="none" 
	d="
M1460.943604,825.014099 
	C1446.890259,808.510071 1447.432983,773.568359 1459.558960,757.906311 
	C1479.427002,732.244995 1516.318604,736.549438 1528.775879,766.519531 
	C1535.727783,783.244690 1535.189087,800.393494 1527.633911,817.001465 
	C1516.839600,840.729675 1482.060913,849.906189 1460.943604,825.014099 
z"/>
<path fill="#46828F" opacity="1.000000" stroke="none" 
	d="
M1334.787354,741.535400 
	C1358.229614,738.884033 1377.531860,754.786194 1380.990479,779.033142 
	C1382.444702,789.228699 1382.093384,799.238770 1379.186890,809.168701 
	C1373.067383,830.076782 1356.525391,840.164001 1339.129639,839.788757 
	C1319.510376,839.365540 1303.802490,824.918762 1300.209717,804.598633 
	C1297.611694,789.904541 1297.861206,775.288269 1305.596924,761.903564 
	C1311.996216,750.830994 1321.579712,743.847351 1334.787354,741.535400 
z"/>
</svg>